<?xml version="1.0" encoding="UTF-8"?><svg id="Layer_1" xmlns="http://www.w3.org/2000/svg" viewBox="0 0 1280 456.38"><path d="M446.42,191.08l-1.96-30.96h9.43c4.45,19.93,16.37,34.34,34.34,34.34,12.63,0,20.82-6.05,20.82-17.08s-7.47-16.55-27.22-22.6c-23.66-6.94-36.65-18.5-36.65-40.03,0-24.73,18.86-40.21,45.19-40.21,16.19,0,29.71,4.27,38.43,10.67v27.04h-8.01c-4.09-17.97-13.88-29.36-30.42-29.36-11.03,0-18.33,6.41-18.33,16.55,0,11.56,7.12,16.37,25.44,21.88,23.66,7.29,39.32,16.72,39.32,41.63,0,27.4-21.88,40.03-48.57,40.03-17.79,0-33.45-5.34-41.81-11.92Z" fill="#f4efe7" stroke-width="0"/><path d="M630.03,181.65c0,4.27.53,8.01,4.8,8.01,2.49,0,4.8-.53,6.05-1.07l1.25,4.8c-5.87,5.87-13.52,9.61-23.48,9.61s-17.79-5.52-20.46-14.95c-5.16,7.47-13.7,14.41-26.87,14.41-14.95,0-25.44-8.54-25.44-23.84s10.85-21.88,23.49-26.33l28.29-9.96v-18.15c0-8.18-2.31-13.7-9.25-13.7s-9.61,5.69-9.61,14.06c0,4.09.71,8.18,1.6,12.45l-19.75,2.67c-5.16-1.78-8.72-6.05-8.72-12.45,0-16.19,16.72-23.66,38.25-23.66,24.91,0,39.85,7.83,39.85,30.96v47.15ZM597.65,182.9v-32.92l-9.79,3.74c-6.23,2.31-10.32,5.69-10.32,15.83,0,9.07,3.38,15.83,12.28,15.83,2.85,0,4.98-.89,7.83-2.49Z" fill="#f4efe7" stroke-width="0"/><path d="M739.81,112.26c-6.23,1.96-7.29,3.2-9.07,7.12l-36.65,82.55h-9.43l-40.74-82.55c-1.96-3.91-2.85-5.16-9.07-7.12v-6.94h56.93v6.94c-9.43,1.25-11.74,2.31-11.74,6.23,0,1.6.36,2.49,1.42,4.98l18.86,41.46,17.26-41.46c1.07-2.49,1.42-3.38,1.42-4.98,0-3.91-2.31-4.98-11.74-6.23v-6.94h32.56v6.94Z" fill="#f4efe7" stroke-width="0"/><path d="M821.83,181.65c0,4.27.53,8.01,4.8,8.01,2.49,0,4.8-.53,6.05-1.07l1.25,4.8c-5.87,5.87-13.52,9.61-23.48,9.61s-17.79-5.52-20.46-14.95c-5.16,7.47-13.7,14.41-26.87,14.41-14.95,0-25.44-8.54-25.44-23.84s10.85-21.88,23.49-26.33l28.29-9.96v-18.15c0-8.18-2.31-13.7-9.25-13.7s-9.61,5.69-9.61,14.06c0,4.09.71,8.18,1.6,12.45l-19.75,2.67c-5.16-1.78-8.72-6.05-8.72-12.45,0-16.19,16.72-23.66,38.25-23.66,24.91,0,39.85,7.83,39.85,30.96v47.15ZM789.45,182.9v-32.92l-9.79,3.74c-6.23,2.31-10.32,5.69-10.32,15.83,0,9.07,3.38,15.83,12.28,15.83,2.85,0,4.98-.89,7.83-2.49Z" fill="#f4efe7" stroke-width="0"/><path d="M875.56,148.2c12.81-25.44,31.49-43.77,48.39-43.77,9.25,0,13.7,5.52,13.7,14.41,0,2.31-.36,5.52-1.42,9.25l-13.34,48.75c-.89,3.38-1.42,6.05-1.42,7.47,0,1.78.89,2.67,2.49,2.67,3.2,0,7.83-4.09,14.77-12.81l3.91,3.2c-12.1,16.9-20.82,25.62-33.27,25.62-10.5,0-16.37-6.58-16.37-15.3,0-4.63.71-8.72,2.49-14.77l11.57-40.21c.53-2.13,1.07-4.45,1.07-5.87,0-2.14-.71-3.38-3.02-3.38-8.36,0-28.47,24.02-35.76,53.2l-6.23,24.55h-28.29l19.75-78.46-9.79-6.58.89-4.09,37.36-7.65h4.45l-11.92,43.77Z" fill="#f4efe7" stroke-width="0"/><path d="M987.29,148.2c12.81-25.44,31.49-43.77,48.39-43.77,9.25,0,13.7,5.52,13.7,14.41,0,2.31-.36,5.52-1.42,9.25l-13.34,48.75c-.89,3.38-1.42,6.05-1.42,7.47,0,1.78.89,2.67,2.49,2.67,3.2,0,7.83-4.09,14.77-12.81l3.91,3.2c-12.1,16.9-20.82,25.62-33.27,25.62-10.5,0-16.37-6.58-16.37-15.3,0-4.63.71-8.72,2.49-14.77l11.57-40.21c.53-2.13,1.07-4.45,1.07-5.87,0-2.14-.71-3.38-3.02-3.38-8.36,0-28.47,24.02-35.76,53.2l-6.23,24.55h-28.29l19.75-78.46-9.79-6.58.89-4.09,37.36-7.65h4.45l-11.92,43.77Z" fill="#f4efe7" stroke-width="0"/><path d="M1143.86,181.65c0,4.27.53,8.01,4.8,8.01,2.49,0,4.8-.53,6.05-1.07l1.25,4.8c-5.87,5.87-13.52,9.61-23.48,9.61s-17.79-5.52-20.46-14.95c-5.16,7.47-13.7,14.41-26.87,14.41-14.95,0-25.44-8.54-25.44-23.84s10.85-21.88,23.49-26.33l28.29-9.96v-18.15c0-8.18-2.31-13.7-9.25-13.7s-9.61,5.69-9.61,14.06c0,4.09.71,8.18,1.6,12.45l-19.75,2.67c-5.16-1.78-8.72-6.05-8.72-12.45,0-16.19,16.72-23.66,38.25-23.66,24.91,0,39.85,7.83,39.85,30.96v47.15ZM1111.48,182.9v-32.92l-9.79,3.74c-6.23,2.31-10.32,5.69-10.32,15.83,0,9.07,3.38,15.83,12.28,15.83,2.85,0,4.98-.89,7.83-2.49Z" fill="#f4efe7" stroke-width="0"/><path d="M1168.59,80.42l-9.79-4.98v-5.34l37.18-8.18h5.52v59.42c6.76-8.54,16.9-17.79,33.09-17.79,17.08,0,26.87,9.79,26.87,29.18v54.62c0,5.69,2.85,6.41,9.96,6.94v6.94h-52.31v-6.94c7.12-.53,9.43-1.25,9.43-6.94v-51.95c0-7.83-2.67-12.46-11.92-12.46-5.69,0-10.68,1.6-15.12,3.92v60.49c0,5.69,2.31,6.41,9.43,6.94v6.94h-52.31v-6.94c7.12-.53,9.96-1.25,9.96-6.94v-106.93Z" fill="#f4efe7" stroke-width="0"/><path d="M450.53,254.71h31.56c7.92,0,14.94,1.57,21.07,4.71,6.13,3.14,10.89,7.54,14.28,13.21,3.39,5.67,5.08,12.18,5.08,19.52s-1.7,13.85-5.08,19.52c-3.39,5.67-8.15,10.07-14.28,13.21-6.13,3.14-13.16,4.71-21.07,4.71h-31.56v-74.88ZM481.45,320.28c6.06,0,11.39-1.18,15.99-3.53,4.6-2.35,8.15-5.65,10.64-9.89,2.5-4.24,3.74-9.15,3.74-14.71s-1.25-10.47-3.74-14.71c-2.5-4.24-6.04-7.54-10.64-9.9-4.6-2.35-9.93-3.53-15.99-3.53h-20.22v56.27h20.22Z" fill="#f4efe7" stroke-width="0"/><path d="M538.89,254.71h10.7v74.88h-10.7v-74.88Z" fill="#f4efe7" stroke-width="0"/><path d="M623.94,291.72h10.27v29.2c-3.71,3.07-8.02,5.42-12.94,7.06s-10.06,2.46-15.4,2.46c-7.56,0-14.37-1.66-20.43-4.97-6.06-3.32-10.82-7.88-14.28-13.69-3.46-5.81-5.19-12.36-5.19-19.63s1.73-13.83,5.19-19.68c3.46-5.85,8.24-10.41,14.33-13.69,6.1-3.28,12.96-4.92,20.59-4.92,5.99,0,11.43.98,16.31,2.94,4.88,1.96,9.04,4.83,12.46,8.61l-6.63,6.63c-5.99-5.78-13.23-8.67-21.72-8.67-5.71,0-10.82,1.23-15.35,3.69-4.53,2.46-8.08,5.88-10.64,10.27s-3.85,9.33-3.85,14.82,1.28,10.32,3.85,14.71c2.57,4.39,6.11,7.83,10.64,10.32,4.53,2.5,9.61,3.74,15.24,3.74,6.7,0,12.55-1.6,17.54-4.81v-24.39Z" fill="#f4efe7" stroke-width="0"/><path d="M654.64,254.71h10.7v74.88h-10.7v-74.88Z" fill="#f4efe7" stroke-width="0"/><path d="M702.67,264.01h-25.67v-9.31h61.94v9.31h-25.67v65.58h-10.59v-65.58Z" fill="#f4efe7" stroke-width="0"/><path d="M794.56,310.87h-39.79l-8.24,18.72h-11.02l33.91-74.88h10.59l34.02,74.88h-11.23l-8.24-18.72ZM790.81,302.31l-16.15-36.69-16.15,36.69h32.31Z" fill="#f4efe7" stroke-width="0"/><path d="M825.15,254.71h10.7v65.58h40.54v9.31h-51.24v-74.88Z" fill="#f4efe7" stroke-width="0"/><path d="M986.9,329.59l-.11-54.56-27.06,45.46h-4.92l-27.06-45.14v54.24h-10.27v-74.88h8.77l31.24,52.63,30.81-52.63h8.77l.11,74.88h-10.27Z" fill="#f4efe7" stroke-width="0"/><path d="M1073.97,320.28v9.31h-54.34v-74.88h52.84v9.31h-42.15v23h37.55v9.09h-37.55v24.18h43.65Z" fill="#f4efe7" stroke-width="0"/><path d="M1091.3,254.71h31.56c7.92,0,14.94,1.57,21.07,4.71,6.13,3.14,10.89,7.54,14.28,13.21,3.39,5.67,5.08,12.18,5.08,19.52s-1.7,13.85-5.08,19.52c-3.39,5.67-8.15,10.07-14.28,13.21-6.13,3.14-13.16,4.71-21.07,4.71h-31.56v-74.88ZM1122.22,320.28c6.06,0,11.39-1.18,15.99-3.53,4.6-2.35,8.15-5.65,10.64-9.89,2.5-4.24,3.74-9.15,3.74-14.71s-1.25-10.47-3.74-14.71c-2.5-4.24-6.04-7.54-10.64-9.9-4.6-2.35-9.93-3.53-15.99-3.53h-20.22v56.27h20.22Z" fill="#f4efe7" stroke-width="0"/><path d="M1179.66,254.71h10.7v74.88h-10.7v-74.88Z" fill="#f4efe7" stroke-width="0"/><path d="M1260.53,310.87h-39.79l-8.24,18.72h-11.02l33.91-74.88h10.59l34.02,74.88h-11.23l-8.24-18.72ZM1256.79,302.31l-16.15-36.69-16.15,36.69h32.31Z" fill="#f4efe7" stroke-width="0"/><polygon points="0 349.75 138.97 325.25 138.97 184.14 243.97 165.62 243.97 413.36 0 456.38 0 349.75" fill="#f4efe7" stroke-width="0"/><polygon points="277.94 125.14 105 155.63 105 296.74 0 315.26 0 67.53 382.94 0 382.94 388.85 277.94 407.37 277.94 125.14" fill="#f4efe7" stroke-width="0"/></svg>